solid
  facet normal 0.000000 0.000000 1.000000
    outer loop
      vertex -4.012500 -0.212500 0.512500
      vertex 4.012500 -0.212500 0.512500
      vertex -4.012500 0.212500 0.512500
    endloop
  endfacet
  facet normal -0.000000 0.000000 1.000000
    outer loop
      vertex -4.012500 0.212500 0.512500
      vertex 4.012500 -0.212500 0.512500
      vertex 4.012500 0.212500 0.512500
    endloop
  endfacet
  facet normal 1.000000 -0.000000 0.000000
    outer loop
      vertex 4.012500 -0.212500 0.512500
      vertex 4.012500 -0.212500 -0.512500
      vertex 4.012500 0.212500 0.512500
    endloop
  endfacet
  facet normal 1.000000 0.000000 0.000000
    outer loop
      vertex 4.012500 0.212500 0.512500
      vertex 4.012500 -0.212500 -0.512500
      vertex 4.012500 0.212500 -0.512500
    endloop
  endfacet
  facet normal 0.000000 0.000000 -1.000000
    outer loop
      vertex 4.012500 -0.212500 -0.512500
      vertex -4.012500 -0.212500 -0.512500
      vertex 4.012500 0.212500 -0.512500
    endloop
  endfacet
  facet normal -0.000000 0.000000 -1.000000
    outer loop
      vertex 4.012500 0.212500 -0.512500
      vertex -4.012500 -0.212500 -0.512500
      vertex -4.012500 0.212500 -0.512500
    endloop
  endfacet
  facet normal -1.000000 0.000000 0.000000
    outer loop
      vertex -4.012500 -0.212500 -0.512500
      vertex -4.012500 -0.212500 0.512500
      vertex -4.012500 0.212500 -0.512500
    endloop
  endfacet
  facet normal -1.000000 0.000000 0.000000
    outer loop
      vertex -4.012500 0.212500 -0.512500
      vertex -4.012500 -0.212500 0.512500
      vertex -4.012500 0.212500 0.512500
    endloop
  endfacet
  facet normal 0.000000 -1.000000 0.000000
    outer loop
      vertex -4.012500 -0.212500 -0.512500
      vertex 4.012500 -0.212500 -0.512500
      vertex -4.012500 -0.212500 0.512500
    endloop
  endfacet
  facet normal 0.000000 -1.000000 0.000000
    outer loop
      vertex 4.012500 -0.212500 -0.512500
      vertex 4.012500 -0.212500 0.512500
      vertex -4.012500 -0.212500 0.512500
    endloop
  endfacet
  facet normal 0.000000 1.000000 0.000000
    outer loop
      vertex 4.012500 0.212500 -0.512500
      vertex -4.012500 0.212500 -0.512500
      vertex -4.012500 0.212500 0.512500
    endloop
  endfacet
  facet normal 0.000000 1.000000 0.000000
    outer loop
      vertex 4.012500 0.212500 0.512500
      vertex 4.012500 0.212500 -0.512500
      vertex -4.012500 0.212500 0.512500
    endloop
  endfacet
endsolid
